:SAMPLES-PER-SECOND 30
:FULLY-SPECIFIED
:DEGREES
1622
root  -72.4396 40.5312 6.07684 -175.985 4.81378 175.544
RightUpLeg  -19.2689 -33.2805 0.0416599
RightLeg  15.2571 -22.3417 -2.00639
RightFoot  -11.3952 -0.0797764 -1.06816
RightToes  9.54606e-009 0 -3.6325e-017
Spine  8.1771 -1.89137 -4.46214
Spine1  5.03276 -2.40073 0.776828
HEad  -34.1672 -19.0827 11.3372
LeftShoulder1  -0.30798 4.4489 -26.3783
LeftArm  -25.352 -0.817593 -22.0431
LeftForeArm  11.5794 -16.7176 -1.45147
LeftHand  0.0369925 7.99766 3.33778
RightShoulder  -0.715074 -5.67476 26.2901
RightArm  16.0486 3.29835 41.3821
RightForeArm  8.92764 15.0926 5.59393
RightHand  -0.216607 4.65707 -2.7899
LeftUpLeg  -0.844193 14.4183 -0.375287
LeftLeg  7.40852 25.4339 -4.39749
LeftFoot  -8.33945 0.0235403 0.971892
LeftToes  -8.26734e-010 9.74065e-011 1.64617e-011
1623
root  -72.4533 40.5156 5.80137 -176.035 10.759 176.008
RightUpLeg  -18.1 -31.9195 0.0344813
RightLeg  14.6657 -26.9058 -1.38567
RightFoot  -10.467 -0.06616 -0.644173
RightToes  9.54606e-009 0 -3.6325e-017
Spine  7.74146 -1.58723 -3.19778
Spine1  4.68367 -1.90642 0.362051
HEad  -33.6243 -19.3215 11.1448
LeftShoulder1  -0.352654 4.60248 -25.8475
LeftArm  -27.4822 1.85146 -21.9558
LeftForeArm  14.9183 -19.9335 -2.75559
LeftHand  0.00536368 7.44654 2.43846
RightShoulder  -0.741616 -5.72479 26.7455
RightArm  15.6606 2.08912 40.0557
RightForeArm  7.38276 15.6082 5.38555
RightHand  -0.195928 3.84737 -2.72398
LeftUpLeg  -0.456847 14.0536 -0.728595
LeftLeg  8.22884 31.4881 -2.475
LeftFoot  -8.94454 0.0810141 -1.27706
LeftToes  -8.26734e-010 9.74065e-011 1.64617e-011
1624
root  -72.3327 40.4816 5.47638 -176.08 16.4662 176.593
RightUpLeg  -16.3689 -24.6049 -1.00846
RightLeg  13.2062 -31.9656 0.336178
RightFoot  -8.74622 -0.024802 -1.42462
RightToes  9.54606e-009 0 -3.6325e-017
Spine  7.25015 -1.37828 -2.98835
Spine1  4.66265 -1.91543 1.45474
HEad  -33.0505 -17.5283 11.1192
LeftShoulder1  -0.433429 4.85602 -25.8018
LeftArm  -28.5777 4.68239 -22.1742
LeftForeArm  17.0177 -22.7588 -3.86158
LeftHand  -0.00563902 6.87396 2.11296
RightShoulder  -0.741697 -5.71171 26.9465
RightArm  15.5505 1.26108 39.6153
RightForeArm  6.32357 15.7608 5.34561
RightHand  -0.20395 3.93368 -2.80703
LeftUpLeg  0.159808 16.395 -0.405175
LeftLeg  9.5299 34.4637 -0.707031
LeftFoot  -9.5221 0.108387 -3.29809
LeftToes  -8.26734e-010 9.74065e-011 1.64617e-011
1625
root  -72.1099 40.3881 5.10391 -176.321 21.6499 177.226
RightUpLeg  -16.2103 -18.2116 -0.480031
RightLeg  13.7343 -32.7376 -0.0912872
RightFoot  -7.94084 0.0575863 -3.7885
RightToes  9.54606e-009 0 -3.6325e-017
Spine  6.79859 -1.49155 -2.51032
Spine1  5.11305 -2.24229 2.48795
HEad  -32.0353 -15.5135 11.9463
LeftShoulder1  -0.53041 5.14324 -26.0823
LeftArm  -28.1171 7.44722 -22.36
LeftForeArm  18.1454 -25.7813 -4.57955
LeftHand  -0.021222 5.98318 1.64856
RightShoulder  -0.735297 -5.70287 26.7922
RightArm  16.1628 0.049896 40.0937
RightForeArm  6.57685 16.5867 5.18144
RightHand  -0.189514 3.35255 -2.76661
LeftUpLeg  0.594883 21.8764 0.129097
LeftLeg  12.358 33.1188 2.5747
LeftFoot  -10.1644 0.124335 -6.18899
LeftToes  -8.26734e-010 9.74065e-011 1.64617e-011
1626
root  -71.8337 40.2921 4.73106 -177.143 26.3759 177.452
RightUpLeg  -15.9083 -15.4713 0.339463
RightLeg  15.2252 -30.3956 -1.27891
RightFoot  -7.83391 0.101013 -5.03104
RightToes  9.54606e-009 0 -3.6325e-017
Spine  7.02055 -1.76408 -1.94339
Spine1  5.51344 -2.58983 2.99102
HEad  -31.2904 -13.5867 11.6039
LeftShoulder1  -0.637222 5.43346 -26.801
LeftArm  -26.6988 9.04141 -22.6842
LeftForeArm  18.6185 -28.0361 -5.04252
LeftHand  -0.00124042 6.59241 2.86722
RightShoulder  -0.863849 -6.0649 27.1273
RightArm  16.2639 -1.39594 40.5738
RightForeArm  6.80538 17.447 4.94676
RightHand  -0.17022 4.28307 -2.3033
LeftUpLeg  1.46931 28.9096 0.706772
LeftLeg  15.1561 29.0184 6.11927
LeftFoot  -10.168 0.165367 -9.97996
LeftToes  -8.26734e-010 9.74065e-011 1.64617e-011
1627
root  -71.5139 40.2036 4.34293 -177.951 30.8781 177.406
RightUpLeg  -15.4462 -14.6352 0.995026
RightLeg  16.5007 -26.7244 -1.82947
RightFoot  -8.14482 0.0941371 -5.33818
RightToes  9.54606e-009 0 -3.6325e-017
Spine  7.11316 -2.00248 -1.09734
Spine1  5.63018 -2.68568 2.84498
HEad  -29.8378 -13.7074 11.0217
LeftShoulder1  -0.622561 5.38293 -26.8981
LeftArm  -26.4542 10.2045 -24.625
LeftForeArm  20.7951 -29.3107 -5.216
LeftHand  -0.0244349 5.74237 1.78282
RightShoulder  -0.938432 -6.20049 28.2392
RightArm  15.8297 -3.10995 40.6047
RightForeArm  8.34894 17.3182 4.84443
RightHand  -0.0228078 3.32703 -0.543454
LeftUpLeg  1.87208 34.0425 1.38724
LeftLeg  18.8427 25.8182 9.67792
LeftFoot  -9.48786 0.29629 -14.7276
LeftToes  -8.26734e-010 9.74065e-011 1.64617e-011
1628
root  -71.1211 40.1091 3.97298 -178.391 35.2528 177.502
RightUpLeg  -14.9074 -13.2669 1.67628
RightLeg  17.3654 -23.7577 -1.87
RightFoot  -8.93008 0.0546457 -5.45052
RightToes  9.54606e-009 0 -3.6325e-017
Spine  6.81675 -2.04533 -0.0905349
Spine1  5.75436 -2.5803 2.89244
HEad  -28.4155 -13.8446 9.79579
LeftShoulder1  -0.603375 5.33452 -26.7135
LeftArm  -26.262 10.3253 -28.0305
LeftForeArm  21.2463 -28.9365 -5.10561
LeftHand  -0.0053124 6.34009 3.06614
RightShoulder  -0.957214 -6.22378 28.6318
RightArm  14.4865 -5.43007 41.3907
RightForeArm  9.27441 16.3088 4.88654
RightHand  -0.0167416 2.94467 -0.290786
LeftUpLeg  1.76439 35.8045 3.23326
LeftLeg  24.4273 24.0733 11.7505
LeftFoot  -8.43195 0.55805 -19.5
LeftToes  -8.26734e-010 9.74065e-011 1.64617e-011
1629
root  -70.6707 40.0144 3.5988 -179.006 39.1441 177.408
RightUpLeg  -14.1001 -12.1038 2.04696
RightLeg  18.2199 -21.2558 -1.78474
RightFoot  -9.92313 0.00281557 -5.65438
RightToes  9.54606e-009 0 -3.6325e-017
Spine  6.26163 -2.09559 0.347911
Spine1  6.29166 -2.67207 3.74736
HEad  -26.5129 -13.8962 8.03413
LeftShoulder1  -0.699645 5.59459 -27.2459
LeftArm  -24.6234 8.88162 -31.4404
LeftForeArm  20.3019 -27.1955 -4.76244
LeftHand  0.00560591 6.8134 3.08544
RightShoulder  -0.959406 -6.22628 28.6806
RightArm  13.3458 -7.64477 42.2857
RightForeArm  9.26805 14.5419 5.1769
RightHand  -0.220439 4.96802 -2.80457
LeftUpLeg  1.17876 36.1265 5.16482
LeftLeg  30.6954 20.4199 12.9071
LeftFoot  -5.68727 1.07292 -20.897
LeftToes  -8.26734e-010 9.74065e-011 1.64617e-011
1630
root  -70.2159 39.9799 3.24435 179.97 42.9885 176.913
RightUpLeg  -12.8707 -11.3782 2.12869
RightLeg  18.512 -18.3936 -1.53069
RightFoot  -10.5516 -0.0288583 -6.10698
RightToes  9.54606e-009 0 -3.6325e-017
Spine  6.73716 -2.05994 0.773176
Spine1  5.58724 -2.50383 3.88806
HEad  -24.4261 -13.677 6.70912
LeftShoulder1  -0.714167 5.62477 -27.4523
LeftArm  -22.2989 7.13423 -35.0207
LeftForeArm  20.0225 -24.9418 -4.27909
LeftHand  -0.0215549 6.31169 1.49829
RightShoulder  -0.965106 -6.23331 28.7929
RightArm  11.9584 -9.45713 43.0508
RightForeArm  13.4182 12.1999 5.36061
RightHand  -0.0834642 3.45814 -1.35342
LeftUpLeg  -0.428723 34.3207 6.24023
LeftLeg  37.2945 15.8942 12.9458
LeftFoot  0.484217 1.38567 -14.3273
LeftToes  -8.26734e-010 9.74065e-011 1.64617e-011
1631
root  -69.8022 39.952 2.89642 178.918 46.166 176.787
RightUpLeg  -11.2606 -10.8083 2.28681
RightLeg  18.7362 -15.8631 -1.30826
RightFoot  -11.2178 -0.0690223 -6.13876
RightToes  9.54606e-009 0 -3.6325e-017
Spine  7.24959 -2.37442 1.33974
Spine1  5.76981 -2.74471 4.20467
HEad  -23.1246 -12.7952 5.06523
LeftShoulder1  -0.750841 5.71478 -27.7532
LeftArm  -18.5066 4.70047 -38.7594
LeftForeArm  18.8817 -22.8559 -3.909
LeftHand  -0.0195172 6.8684 1.24014
RightShoulder  -1.01223 -6.30965 29.5285
RightArm  11.8293 -8.89224 43.3801
RightForeArm  17.4273 8.33891 6.09229
RightHand  0.00645659 2.6251 -0.142382
LeftUpLeg  -2.69284 30.1999 6.7512
LeftLeg  43.5322 10.7293 11.0715
LeftFoot  7.11404 0.83755 -5.05665
LeftToes  -8.26734e-010 9.74065e-011 1.64617e-011
1632
root  -69.4415 39.8711 2.57129 177.809 48.9276 176.63
RightUpLeg  -9.93797 -10.3167 2.34975
RightLeg  19.5367 -13.749 -1.36197
RightFoot  -12.1803 -0.126108 -6.00602
RightToes  9.54606e-009 0 -3.6325e-017
Spine  8.29719 -2.80548 1.80698
Spine1  5.61821 -3.15532 5.07114
HEad  -22.1359 -12.0491 3.51712
LeftShoulder1  -0.722943 5.59132 -28.432
LeftArm  -13.9864 2.15887 -42.4055
LeftForeArm  17.5705 -20.7754 -3.71237
LeftHand  -0.00843114 7.26099 1.80421
RightShoulder  -0.966771 -6.1883 29.4528
RightArm  11.797 -9.57919 44.0071
RightForeArm  21.617 7.53818 6.0665
RightHand  0.00163098 -0.498742 0.0673467
LeftUpLeg  -4.90129 23.8381 6.1351
LeftLeg  48.3928 4.90712 6.30365
LeftFoot  5.88299 0.976434 -6.69968
LeftToes  -8.26734e-010 9.74065e-011 1.64617e-011
1633
root  -69.0483 39.8891 2.19342 176.586 52.4852 175.661
RightUpLeg  -8.77578 -9.43851 2.0788
RightLeg  19.4626 -11.1124 -1.28635
RightFoot  -12.5998 -0.148852 -5.78276
RightToes  9.54606e-009 0 -3.6325e-017
Spine  8.15377 -2.9228 2.00062
Spine1  6.39246 -3.19061 5.05687
HEad  -21.7616 -10.8645 2.96254
LeftShoulder1  -0.681254 5.48822 -28.1375
LeftArm  -10.3528 -0.233012 -46.7289
LeftForeArm  18.853 -19.3631 -3.85228
LeftHand  -0.014003 7.53426 1.3526
RightShoulder  -0.921648 -6.06071 29.4694
RightArm  11.6398 -9.03502 45.0491
RightForeArm  22.6082 6.17535 6.16067
RightHand  -0.0553168 0.421303 -0.837595
LeftUpLeg  -7.3355 18.353 4.42045
LeftLeg  51.4876 0.164372 0.715972
LeftFoot  3.7835 1.06196 -8.16011
LeftToes  -8.26734e-010 9.74065e-011 1.64617e-011
1634
root  -68.597 39.9533 1.7674 175.061 56.3282 174.175
RightUpLeg  -7.44638 -9.22156 1.33734
RightLeg  18.9897 -7.55411 -0.527848
RightFoot  -13.0329 -0.17522 -5.91427
RightToes  9.54606e-009 0 -3.6325e-017
Spine  7.87287 -2.80133 2.26307
Spine1  6.66903 -2.91878 4.58153
HEad  -20.7824 -9.50896 2.3186
LeftShoulder1  -0.630332 5.36253 -27.6756
LeftArm  -6.1305 -2.02642 -50.8113
LeftForeArm  21.3777 -19.0786 -4.1166
LeftHand  -0.016686 7.754 1.16555
RightShoulder  -0.946988 -6.14718 29.2463
RightArm  11.7396 -8.69048 45.9648
RightForeArm  20.6793 5.95549 6.34723
RightHand  -0.130079 4.38886 -1.60773
LeftUpLeg  -9.44391 13.7351 2.64094
LeftLeg  52.8191 -1.37895 -1.47426
LeftFoot  2.80952 1.06501 -8.70163
LeftToes  -8.26734e-010 9.74065e-011 1.64617e-011
